# xmcd CD database file
#
# Track frame offsets:
#	150
#	11198
#	28594
#	37723
#	50116
#	61769
#	79521
#	94155
#	105893
#	119162
#	134673
#	145808
#
# Disc length: 2182 seconds
#
# Revision: 5
# Processed by: cddbd v1.4PL0 Copyright (c) Steve Scherf et al.
# Submitted via: CDex 1.40Release
#
DISCID=9d08840c
DTITLE=Audrey Auld - The Fallen
DYEAR=2000
DGENRE=Country
TTITLE0=I'd Leave Me Too
TTITLE1=Black Cloud
TTITLE2=Shove It
TTITLE3=To The Bone
TTITLE4=Jellyroll
TTITLE5=Alcohol and Pills
TTITLE6=Without You
TTITLE7=Too Far To Fall
TTITLE8=Jackson
TTITLE9=Still Holding On
TTITLE10=Missing You
TTITLE11=Song For Clax
EXTD=Audrey Auld, former singing partner of Bill Chambers, co-founder of the Dead Ringer Band and father of Kasey Chambers YEAR: 2000 ID3G: 2
EXTT0=
EXTT1=
EXTT2=
EXTT3=
EXTT4=
EXTT5=
EXTT6=
EXTT7=
EXTT8=
EXTT9=
EXTT10=
EXTT11=
PLAYORDER=
